HIERARCHY
ROOT Hips
{
 OFFSET 0.000000 0.000000 0.000000
 CHANNELS 6 Xposition Yposition Zposition Yrotation Xrotation Zrotation
 JOINT Chest
 {
  OFFSET 0.000000 9.585900 0.002600
  CHANNELS 3 Yrotation Xrotation Zrotation
  JOINT Chest2
  {
   OFFSET 0.000000 9.601200 -0.005300
   CHANNELS 3 Yrotation Xrotation Zrotation
   JOINT Chest3
   {
    OFFSET 0.000000 9.561800 0.000000
    CHANNELS 3 Yrotation Xrotation Zrotation
    JOINT Chest4
    {
     OFFSET 0.000000 9.552100 0.000000
     CHANNELS 3 Yrotation Xrotation Zrotation
     JOINT Neck
     {
      OFFSET 0.000000 14.453000 0.000000
      CHANNELS 3 Yrotation Xrotation Zrotation
      JOINT Head
      {
       OFFSET 0.000000 8.936500 -0.011300
       CHANNELS 3 Yrotation Xrotation Zrotation
       End Site
       {
        OFFSET 0.000000 17.073600 -0.006000
       }
      }
     }
     JOINT RightCollar
     {
      OFFSET -2.921100 9.558500 0.000000
      CHANNELS 3 Yrotation Xrotation Zrotation
      JOINT RightShoulder
      {
       OFFSET -13.519700 0.000000 0.000000
       CHANNELS 3 Yrotation Xrotation Zrotation
       JOINT RightElbow
       {
        OFFSET 0.000000 -29.696600 0.000000
        CHANNELS 3 Yrotation Xrotation Zrotation
        JOINT RightWrist
        {
         OFFSET 0.000000 -24.004700 0.000000
         CHANNELS 3 Yrotation Xrotation Zrotation
         End Site
         {
          OFFSET 0.000000 -17.728500 0.000000
         }
        }
       }
      }
     }
     JOINT LeftCollar
     {
      OFFSET 2.921100 9.558500 0.000000
      CHANNELS 3 Yrotation Xrotation Zrotation
      JOINT LeftShoulder
      {
       OFFSET 13.519700 0.000000 0.000000
       CHANNELS 3 Yrotation Xrotation Zrotation
       JOINT LeftElbow
       {
        OFFSET 0.000000 -29.696600 0.000000
        CHANNELS 3 Yrotation Xrotation Zrotation
        JOINT LeftWrist
        {
         OFFSET 0.000000 -24.004700 0.000000
         CHANNELS 3 Yrotation Xrotation Zrotation
         End Site
         {
          OFFSET 0.000000 -17.728500 0.000000
         }
        }
       }
      }
     }
    }
   }
  }
 }
 JOINT RightHip
 {
  OFFSET -7.771700 -0.012900 -0.001300
  CHANNELS 3 Yrotation Xrotation Zrotation
  JOINT RightKnee
  {
   OFFSET 0.000000 -40.869800 0.001200
   CHANNELS 3 Yrotation Xrotation Zrotation
   JOINT RightAnkle
   {
    OFFSET 0.000000 -39.717900 0.002100
    CHANNELS 3 Yrotation Xrotation Zrotation
    JOINT RightToe
    {
     OFFSET 0.000000 -4.965400 11.033500
     CHANNELS 3 Yrotation Xrotation Zrotation
     End Site
     {
      OFFSET 0.000000 -1.423100 5.872300
     }
    }
   }
  }
 }
 JOINT LeftHip
 {
  OFFSET 7.771700 -0.012900 -0.001300
  CHANNELS 3 Yrotation Xrotation Zrotation
  JOINT LeftKnee
  {
   OFFSET 0.000000 -40.869800 0.001200
   CHANNELS 3 Yrotation Xrotation Zrotation
   JOINT LeftAnkle
   {
    OFFSET 0.000000 -39.717900 0.002100
    CHANNELS 3 Yrotation Xrotation Zrotation
    JOINT LeftToe
    {
     OFFSET 0.000000 -4.965400 11.033500
     CHANNELS 3 Yrotation Xrotation Zrotation
     End Site
     {
      OFFSET 0.000000 -1.423100 5.872300
     }
    }
   }
  }
 }
}
MOTION
Frames: 9
Frame Time: 0.008333
-129.124899 51.761444 -53.541492 177.548858 -20.115024 -0.139936 -1.606013 12.784999 0.379972 -0.126969 0.974828 0.084096 -0.189294 1.670484 0.158026 -1.205217 11.518009 0.994702 -1.740960 18.100146 -1.215804 -1.539624 -6.656287 -0.887338 0.173005 17.107512 8.648290 38.441783 -2.468813 -30.081638 80.602588 -49.457520 -106.782178 7.108668 -1.790114 -10.752510 1.032265 16.108030 -12.192138 -34.396167 0.503520 27.390365 -115.283181 -83.982480 151.372864 15.663981 2.495207 18.616811 -12.677788 -62.153149 6.188134 -89.248796 81.748696 -97.703337 -4.693008 -8.319241 8.004770 0.512657 -0.993430 0.213086 14.243608 -60.283224 -10.460490 27.440985 85.489036 32.641495 -3.719444 -12.329074 2.171093 0.139174 0.365887 0.069406
-129.119833 51.757131 -53.547684 177.537007 -20.099779 -0.131493 -1.590594 12.771432 0.380162 -0.110516 0.979130 0.093510 -0.157140 1.671538 0.171681 -1.244752 11.509728 0.977591 -1.737452 18.089954 -1.205439 -1.552644 -6.685753 -0.860242 0.218105 17.115389 8.668204 38.428461 -2.462773 -30.050443 80.628275 -49.584913 -106.819796 7.104316 -1.806019 -10.721254 1.072308 16.116533 -12.177822 -34.388958 0.512275 27.370665 -115.758619 -84.008031 151.819135 15.713220 2.529610 18.689624 -12.682227 -62.170082 6.200061 -89.332661 81.754638 -97.786618 -4.689322 -8.342900 7.997687 0.511031 -0.982243 0.215164 14.261087 -60.298987 -10.470820 27.541610 85.497061 32.742700 -3.719153 -12.339480 2.170248 0.143844 0.369823 0.064927
-129.111785 51.751592 -53.549695 177.498425 -20.062065 -0.128204 -1.524930 12.739310 0.411179 -0.109471 0.978285 0.093623 -0.155537 1.669311 0.172295 -1.188064 11.503844 0.997275 -1.801687 18.082183 -1.207759 -1.571270 -6.692907 -0.849370 0.148768 17.119740 8.660232 38.450514 -2.448063 -29.959265 80.628281 -49.598646 -106.840494 7.106892 -1.820929 -10.668439 1.038952 16.123376 -12.174094 -34.423587 0.517855 27.359381 -116.023816 -84.052885 152.092140 15.747949 2.556884 18.759589 -12.697555 -62.205288 6.253706 -89.409234 81.757658 -97.860915 -4.658119 -8.404067 7.997727 0.474972 -0.937450 0.203101 14.280528 -60.339400 -10.458861 27.659289 85.499206 32.861665 -3.706915 -12.349740 2.165524 0.121385 0.375262 0.056432
-129.106972 51.747573 -53.555170 177.508727 -20.049134 -0.118117 -1.485851 12.736481 0.437729 -0.107447 0.976379 0.093948 -0.182117 1.663852 0.158869 -1.177042 11.499380 1.000924 -1.786105 18.067186 -1.187276 -1.613867 -6.691616 -0.846307 0.150923 17.127257 8.670628 38.414164 -2.455212 -29.922896 80.638010 -49.603505 -106.835886 7.114533 -1.833969 -10.621269 1.053679 16.127969 -12.165542 -34.404555 0.536310 27.340746 -116.708684 -84.106166 152.760380 15.736449 2.558830 18.801463 -12.744876 -62.224426 6.276425 -89.526517 81.764029 -97.987623 -4.660975 -8.416588 7.978058 0.479815 -0.940728 0.208979 14.273704 -60.350877 -10.473415 27.741155 85.499457 32.939743 -3.708775 -12.356277 2.159082 0.125008 0.381009 0.054773
-129.104874 51.745785 -53.565667 177.576134 -20.071317 -0.108286 -1.533355 12.764871 0.423509 -0.118388 0.972241 0.086473 -0.168807 1.666169 0.166702 -1.167842 11.495949 1.004618 -1.795403 18.059823 -1.181854 -1.624905 -6.699564 -0.838421 0.180171 17.143092 8.693343 38.348147 -2.472503 -29.901754 80.652266 -49.569210 -106.840270 7.118514 -1.838765 -10.605017 1.071321 16.130513 -12.160872 -34.316042 0.559734 27.323163 -117.614285 -84.133957 153.596038 15.706703 2.533166 18.785996 -12.764216 -62.211741 6.214875 -89.691031 81.760065 -98.140536 -4.708535 -8.400010 7.936265 0.539505 -0.974734 0.239099 14.196050 -60.324396 -10.480322 27.826065 85.494091 33.003527 -3.721338 -12.363764 2.152523 0.139426 0.391479 0.056174
-129.097568 51.740898 -53.566135 177.540664 -20.035464 -0.096741 -1.478572 12.736322 0.444866 -0.126498 0.968138 0.078754 -0.158785 1.668848 0.174818 -1.175411 11.491231 0.999153 -1.782875 18.054935 -1.170707 -1.630161 -6.707665 -0.832467 0.207410 17.157226 8.711848 38.299334 -2.486321 -29.882445 80.659719 -49.544491 -106.818986 7.141958 -1.853216 -10.532830 1.105775 16.134190 -12.150532 -34.294197 0.569682 27.312355 -117.969074 -84.168185 153.939006 15.695741 2.516536 18.768282 -12.774378 -62.247726 6.256563 -89.741435 81.755980 -98.195732 -4.666394 -8.445559 7.938918 0.484721 -0.936990 0.222154 14.207342 -60.361689 -10.466059 27.871245 85.495075 33.035905 -3.704296 -12.366211 2.153949 0.120690 0.394712 0.048010
-129.093121 51.737255 -53.568871 177.543597 -20.017161 -0.082202 -1.466703 12.724257 0.448336 -0.122814 0.968182 0.079728 -0.161376 1.667350 0.174480 -1.180252 11.487603 0.994114 -1.769988 18.049577 -1.160921 -1.637692 -6.712343 -0.830752 0.223851 17.167145 8.722635 38.262825 -2.498042 -29.862299 80.634373 -49.489033 -106.731827 7.182559 -1.898455 -10.450091 1.112352 16.134952 -12.148524 -34.282319 0.573442 27.306389 -117.736931 -84.230411 153.784894 15.692966 2.512168 18.802269 -12.777042 -62.270424 6.250255 -89.781641 81.748690 -98.239031 -4.648163 -8.449236 7.929031 0.474424 -0.935557 0.222055 14.198938 -60.378155 -10.476064 27.908282 85.493784 33.062794 -3.700810 -12.368609 2.147395 0.121517 0.397429 0.045461
-129.088419 51.735210 -53.574559 177.565481 -20.021492 -0.077708 -1.477587 12.732285 0.449962 -0.100573 0.975754 0.098241 -0.187740 1.657841 0.152893 -1.166292 11.488899 1.003494 -1.765601 18.042302 -1.157560 -1.635292 -6.719282 -0.829945 0.213216 17.168773 8.718329 38.245952 -2.505557 -29.834789 80.636700 -49.448298 -106.724415 7.225961 -1.933287 -10.375321 1.108791 16.135352 -12.152283 -34.269821 0.574813 27.300914 -117.572487 -84.239271 153.644924 15.681820 2.520413 18.849594 -12.780887 -62.269802 6.227823 -89.886598 81.732635 -98.334183 -4.636899 -8.457484 7.909168 0.479980 -0.936215 0.228179 14.155747 -60.373300 -10.468529 27.951611 85.492925 33.097261 -3.693981 -12.371410 2.140925 0.122201 0.401340 0.042349
-129.085495 51.732521 -53.577233 177.567734 -20.009859 -0.060355 -1.479754 12.721221 0.436434 -0.095695 0.977242 0.101851 -0.188086 1.656661 0.153593 -1.131297 11.491956 1.029082 -1.785391 18.034772 -1.167651 -1.625174 -6.729252 -0.827807 0.176559 17.168359 8.700242 38.233715 -2.511143 -29.816593 80.605912 -49.405948 -106.670055 7.223661 -1.959849 -10.381569 1.141161 16.143768 -12.144022 -34.278243 0.581497 27.286164 -117.698363 -84.225013 153.752071 15.664209 2.522551 18.890528 -12.787625 -62.286471 6.220428 -89.927222 81.730296 -98.383960 -4.616842 -8.457739 7.901630 0.466194 -0.937581 0.225074 14.147469 -60.380791 -10.482558 28.037711 85.485782 33.175129 -3.692700 -12.373944 2.134586 0.124644 0.407790 0.041112
